# xmcd CD database file
#
# Track frame offsets:
#	150
#	16253
#	34223
#
# Disc length: 683 seconds
#
# Revision: 0
# Processed by: cddbd v1.5.1PL0 Copyright (c) Steve Scherf et al.
# Submitted via: CDex 1.51
#
DISCID=1a02a903
DTITLE=face to ace - KALEID-PARADE
DYEAR=2004
DGENRE=Pop
TTITLE0=KALEID-PARADE
TTITLE1=流星雨
TTITLE2=INTO THE BLUE
EXTD=YEAR: 2004
EXTT0=
EXTT1=
EXTT2=
PLAYORDER=
